# xmcd
# 
# Track frame offsets:
#     150
#     15225
#     33149
#     47850
#     65026
# 
# Disc length: 1146
# 
# Revision: 0
# Processed by: cddbd v1.5.2PL0 Copyright (c) Steve Scherf et al.
# Submitted via: fre:ac v1.0.17
# 
DISCID=36047805
DTITLE=遼花 -haruka- - Hymns to My Soul
DYEAR=2013
DGENRE=Rock
TTITLE0=こわれもののブルース
TTITLE1=180°
TTITLE2=愛の柩
TTITLE3=羊たちのララバイ
TTITLE4=Yes
EXTD=
EXTT0=
EXTT1=
EXTT2=
EXTT3=
EXTT4=
PLAYORDER=
